PathFileType	4	(X/Y/Z)	C:/Users/beibeiliu/ov580/test_trc/User3\sequence.6_training_dense_left.trc
DataRate	CameraRate	NumFrames	NumMarkers	Units	OrigDataRate	OrigDataStartFrame	OrigNumFrames
120	120	19	19	mm	120	74	195
Frame#	Time	ThumbCMC			ThumbMCP			ThumbIP			ThumbTip			IndexMCP			IndexPIP			IndexTip			MiddleMCP			MiddlePIP			MiddleTip			RingMCP			RingPIP			RingTip			PinkyMCP			PinkyPIP			PinkyTip			BackHand1			BackHand2			BackHand3	
		X0	Y0	Z0	X1	Y1	Z1	X2	Y2	Z2	X3	Y3	Z3	X4	Y4	Z4	X5	Y5	Z5	X6	Y6	Z6	X7	Y7	Z7	X8	Y8	Z8	X9	Y9	Z9	X10	Y10	Z10	X11	Y11	Z11	X12	Y12	Z12	X13	Y13	Z13	X14	Y14	Z14	X15	Y15	Z15	X16	Y16	Z16	X17	Y17	Z17	X18	Y18	Z18	
73	0.608333	-139.077	-2.88621	41.599	-108.703	-14.4005	36.9617	-90.0998	-34.1126	28.4922	-92.1337	-61.9681	21.679	-97.1325	-40.8573	-6.81651	-75.4087	-49.7582	15.7194	-94.794	-42.0473	41.568	-102.639	-54.2968	-6.76391	-87.9774	-67.8595	22.5025	-120.977	-52.5388	39.2946	-113.824	-73.2396	11.2282	-114.077	-69.4581	41.8891	-140.26	-48.537	42.0352	-128.887	-84.2417	17.475	-126.657	-76.9434	42.0229	-154.693	-57.5735	45.5336	-166.089	-48.3185	-2.1219	-189.999	-40.8298	15.93	-163.347	-11.4432	13.1324	
74	0.616667	-130.395	2.61803	42.6524	-100.601	-5.9365	35.8523	-82.1941	-33.0744	25.534	-95.9038	-57.1145	22.6091	-88.4307	-36.9442	0.453073	-82.7009	-47.1444	30.1641	-109.089	-29.6406	39.1101	-101.064	-53.7599	-1.95343	-94.6636	-59.7876	32.6367	-127.124	-39.3626	38.8851	-111.93	-69.1341	6.65187	-108.707	-64.9351	37.2621	-132.08	-44.383	41.9486	-126.018	-77.4472	11.0771	-120.704	-64.5759	35.6368	-142.844	-48.3843	35.8651	-160.153	-38.3559	-2.6391	-185.039	-31.2511	20.3003	-157.573	-8.64254	14.1696	
75	0.625	-143.03	6.96087	42.7376	-107.445	8.23751	36.7205	-82.434	-10.1626	30.2285	-84.479	-38.7486	24.9638	-93.6926	-16.1876	-8.84793	-72.1084	-24.7636	16.636	-98.3989	-16.9147	37.4863	-95.865	-38.7353	-3.41838	-84.6207	-38.8987	29.2772	-121.878	-30.0901	38.4324	-103.76	-55.3618	8.25747	-99.3437	-49.8939	38.325	-127.757	-40.0496	52.3452	-118.233	-66.3518	11.296	-116.012	-56.6079	41.0962	-142.619	-43.5698	38.8322	-162.377	-42.3123	-0.0308546	-182.338	-33.3053	20.102	-159.543	-5.90497	11.8227	
76	0.633333	-147.214	10.2179	33.4253	-113.103	17.2896	31.4311	-84.6498	-3.8246	25.863	-88.2613	-32.3291	28.3611	-98.3762	-11.828	-13.9498	-74.5666	-9.03178	11.6079	-99.5467	-7.80975	30.8078	-93.4639	-35.2708	-2.95106	-82.7994	-21.5825	28.148	-121.894	-18.9284	37.8649	-99.657	-44.7433	10.3918	-94.2464	-34.9039	39.9526	-122.766	-23.6033	51.9465	-109.985	-60.4605	16.6033	-103.761	-48.9016	43.102	-128.267	-31.4843	53.6253	-157.895	-48.815	5.00621	-182.147	-42.3664	26.2585	-167.761	-12.8472	8.3013	
77	0.641667	-160.043	10.9894	26.6717	-122.424	23.9267	22.3358	-96.2991	11.5342	26.7589	-84.6866	-14.81	34.0662	-103.28	-7.03138	-17.1197	-84.0865	5.40772	5.468	-114.718	11.5473	22.7077	-97.9938	-23.6824	-9.97731	-80.6566	-5.61863	16.6093	-113.537	-5.91382	33.4674	-96.2054	-38.5536	7.34071	-86.3402	-21.6738	33.1592	-112.404	-11.1808	44.3011	-101.874	-45.1232	28.2859	-108.624	-21.8373	40.2386	-138.687	-26.9749	32.453	-151.86	-55.1973	8.98165	-175.144	-49.7174	27.4274	-168.113	-21.5203	5.31387	
78	0.65	-159.65	18.1574	19.575	-127.356	34.1892	17.4402	-100.012	18.7046	18.3227	-92.3439	-7.31421	25.7883	-102.953	0.599475	-23.2526	-85.1061	11.8969	-1.64822	-111.151	12.1357	20.3602	-100.416	-14.4932	-6.454	-93.693	0.792068	22.6965	-134.367	0.513885	26.8895	-98.9658	-27.1568	4.55417	-90.6928	-12.0873	27.8213	-112.17	-3.03817	52.7878	-104.393	-38.3109	18.2367	-104.736	-21.6442	36.162	-133.614	-12.721	46.7048	-155.407	-46.2947	2.04274	-181.131	-43.9703	26.1486	-174.837	-10.879	3.39591	
79	0.658333	-174.661	19.574	16.4191	-139.882	39.6546	7.48637	-112.866	26.8328	10.3411	-103.058	3.55932	17.4148	-114.434	7.40843	-28.692	-98.4701	25.753	-6.48748	-127.244	20.8942	13.8603	-107.284	-6.67957	-13.3423	-103.53	10.8511	16.4626	-141.01	4.75976	22.1909	-106.652	-16.9501	2.21784	-108.764	-5.03546	30.7199	-143.268	-8.32425	30.8086	-105.556	-36.8809	11.0242	-99.7655	-17.9704	29.814	-122.187	-4.54398	42.3749	-160.189	-42.1453	0.549322	-182.764	-42.728	20.1339	-179.565	-12.1147	-3.18842	
80	0.666667	-181.95	19.7693	13.4609	-154.639	41.5206	3.30374	-123.352	31.9488	-0.73845	-109.943	12.8417	6.89401	-128.883	10.024	-37.2922	-110.232	28.7675	-19.5281	-134.816	22.0232	6.35911	-119.831	-1.98701	-23.273	-108.562	11.9588	4.50727	-145.295	-0.882876	20.2742	-113.135	-13.5797	-8.82316	-106.96	-0.408574	15.6228	-137.975	5.92809	36.888	-113.645	-33.785	-5.8421	-98.2903	-18.0111	8.96763	-119.878	-12.0062	29.2115	-166.203	-44.2201	0.80779	-185.805	-42.9772	20.8914	-191.227	-14.7723	-0.434506	
81	0.675	-195.31	17.1553	9.84207	-170.016	37.7994	-8.86691	-138.581	35.6476	-17.283	-120.005	42.8445	-22.9559	-143.169	11.3553	-42.6115	-123.843	32.323	-26.5347	-146.181	27.7744	-0.985009	-127.634	3.51954	-29.5243	-120.585	22.7914	-5.54091	-153.062	11.3918	13.2345	-123.094	-14.2394	-13.6263	-121.031	10.2977	9.16416	-152.409	1.95801	18.7744	-117.799	-24.3279	-4.05608	-117.412	-3.71621	16.3554	-143.51	-9.91659	28.1089	-170.333	-45.0823	-2.07791	-189.723	-44.8621	20.3991	-200.791	-17.7906	-3.89677	
82	0.683333	-206.385	12.348	5.28017	-188.004	37.299	-12.385	-156.913	38.5837	-25.1736	-130.415	23.1436	-22.3447	-153.645	5.6544	-50.8684	-140.783	33.6187	-40.0519	-156.277	30.3547	-12.6859	-142.636	0.964131	-38.5992	-132.231	23.3957	-15.6314	-165.443	10.9826	5.44463	-134.745	-8.1734	-22.4097	-129.715	10.7611	0.298731	-161.938	2.04268	14.2456	-127.968	-22.2517	-10.0857	-128.939	2.12717	4.65206	-155.141	-1.49434	15.0086	-176.138	-44.3367	-7.81403	-195.732	-51.1682	22.8317	-205.955	-24.3104	-8.10387	
83	0.691667	-217.668	11.6867	-0.121627	-196.751	33.9898	-18.1235	-165.966	37.3879	-29.6804	-141.671	23.0092	-21.349	-172.218	0.226386	-57.5779	-153.386	27.678	-49.7679	-168.366	25.792	-19.5734	-152.696	-4.52939	-43.6201	-145.833	24.0996	-26.5513	-171.02	9.07119	0.604242	-142.324	-14.1327	-23.5055	-144.458	15.1173	-8.39515	-174.68	5.61634	6.07098	-133.199	-29.621	-17.4716	-123.998	-4.69748	-11.4357	-143.775	1.45051	8.22703	-183.312	-45.961	-2.9067	-198.852	-48.2785	26.2521	-212.099	-28.7961	-4.6904	
84	0.7	-225.163	9.7221	-4.78525	-206.914	31.5462	-27.717	-178.666	37.1721	-39.8176	-156.463	21.1181	-32.2151	-181.232	-2.52727	-65.7164	-167.272	25.1686	-61.6489	-178.859	23.5086	-29.4498	-164.443	-2.67052	-52.1256	-154.287	18.8672	-29.8062	-179.362	6.58788	-0.876302	-152.978	-15.327	-35.9931	-148.468	8.88182	-17.241	-177.352	0.466694	-0.0910078	-145.766	-23.4622	-20.1895	-151.739	0.983926	-3.08832	-176.306	-11.7578	7.32865	-192.599	-49.8269	-11.4184	-207.517	-49.3789	17.0855	-221.508	-29.8772	-7.00826	
85	0.708333	-234.961	6.62149	0.132651	-221.795	25.3386	-28.4291	-195.267	25.3318	-46.3574	-173.749	18.4782	-46.2142	-201.891	-9.72959	-64.6587	-179.223	15.1261	-65.8173	-193.472	21.7926	-34.5007	-179.727	-12.972	-58.5425	-167.292	14.4315	-43.8872	-188.175	9.58032	-14.5627	-166.931	-19.7874	-44.5966	-157.168	4.56917	-31.0575	-179.594	1.81743	-6.18027	-156.59	-35.0236	-30.318	-151.421	-6.91168	-27.4351	-166.144	-4.73623	0.968968	-203.752	-52.9253	-9.48011	-216.764	-50.4085	23.0567	-232.476	-31.4016	-5.36446	
86	0.716667	-241.705	7.77868	-6.61243	-229.292	27.1171	-35.2291	-201.784	21.3399	-53.5024	-177.124	3.63887	-50.073	-211.121	-15.8176	-70.8262	-190.848	12.1393	-73.1579	-200.522	17.0835	-40.4027	-191.529	-17.95	-62.8373	-174.214	7.91713	-50.0795	-195.008	8.00427	-15.7843	-178.409	-24.3122	-51.1505	-171.021	1.11085	-34.9972	-193.359	-2.5057	-11.3151	-169.238	-36.9413	-37.5882	-161.113	-10.2389	-31.185	-178.89	-1.83421	-9.74408	-216.39	-53.2217	-14.5346	-223.828	-48.424	18.4299	-241.885	-29.426	-9.11891	
87	0.725	-248.657	6.2556	-6.70045	-236.992	22.9915	-37.3841	-210.957	15.6338	-57.2542	-192.05	0.519424	-50.6891	-231.184	-19.2282	-73.1824	-208.785	5.34529	-77.2225	-210.43	9.62458	-44.2739	-207.943	-30.1923	-67.0832	-188.282	-3.61407	-64.5588	-197.167	6.8215	-26.3881	-191.735	-34.3327	-54.7423	-182.167	-6.20747	-47.1968	-201.106	-7.74339	-15.9289	-183.872	-43.0215	-42.8251	-169.434	-17.4674	-38.7402	-179.101	-8.15327	-10.7034	-224.122	-57.2988	-14.4731	-226.453	-52.7509	19.1522	-247.706	-35.5369	-4.60095	
88	0.733333	-257.916	5.71485	-7.18323	-246.433	19.3721	-38.7394	-222.561	12.8658	-56.7141	-200.076	-3.5767	-54.6732	-234.96	-30.1089	-70.9826	-214.065	-3.55646	-79.7406	-221.38	3.99643	-46.2935	-216.279	-33.8205	-69.0855	-199.859	-3.88905	-62.6069	-211.602	-5.34845	-28.8127	-202.82	-42.5306	-56.2178	-188.191	-16.4972	-52.5162	-205.796	-12.2896	-20.4096	-191.421	-52.0165	-45.8345	-178.754	-26.4161	-43.966	-197.283	-17.1414	-19.7772	-231.834	-61.2717	-8.20517	-237.329	-53.0919	22.8897	-256.754	-35.4431	-2.37119	
89	0.741667	-263.131	0.345608	-10.0672	-253.572	18.0545	-42.1056	-230.483	7.57944	-62.9019	-209.11	-9.29538	-61.2598	-246.336	-33.5994	-77.0197	-226.283	-9.4975	-86.326	-229.306	2.47623	-54.203	-226.549	-39.9736	-73.0914	-207.746	-12.7929	-65.9961	-222.749	-12.0522	-30.4778	-215.421	-46.1038	-62.4814	-198.074	-21.2484	-53.7823	-213.781	-14.3099	-28.1538	-202.252	-57.3104	-43.3864	-193.1	-31.3818	-46.0768	-216.647	-22.4396	-24.2458	-243.535	-66.8581	-12.0866	-245.43	-58.4196	16.2923	-268.511	-39.2269	-4.92811	
90	0.75	-267.782	0.686984	-4.48369	-262.756	10.2825	-34.0934	-251.304	7.1209	-65.2991	-232.077	-11.4913	-72.6529	-274.121	-39.9284	-70.1858	-253.848	-39.4063	-97.0365	-237.592	-14.999	-80.9621	-241.571	-44.734	-74.1115	-218.114	-25.1969	-77.7528	-225.053	-12.3906	-39.45	-233.125	-53.1067	-60.7219	-204.377	-33.9716	-57.8284	-218.465	-20.1233	-31.3884	-218.543	-65.5232	-49.9331	-200.234	-43.1598	-49.3511	-214.737	-29.1971	-27.6898	-261.941	-61.5457	-9.12705	-260.462	-57.6841	20.9424	-277.08	-35.8601	-1.31074	
91	0.758333	-275.054	0.545352	-3.82199	-271.453	8.21467	-37.9565	-259.681	-0.100025	-63.4556	-241.179	-22.0144	-73.2252	-284.497	-43.831	-72.0592	-266.115	-41.1387	-98.2158	-247.971	-19.1478	-81.3609	-260.736	-49.3354	-72.401	-229.754	-31.8998	-78.6238	-233.185	-18.5318	-44.1463	-243.799	-61.8411	-61.3789	-220.241	-40.0343	-64.2939	-225.755	-29.4087	-32.7098	-234.653	-71.3318	-46.5053	-214.378	-50.7286	-52.3106	-221.799	-36.965	-30.9766	-274.039	-63.6037	-11.792	-270.497	-57.8923	17.3297	-288.089	-37.156	-5.12803	
